<?xml version="1.0" encoding="utf-8"?>
<!-- Generator: Adobe Illustrator 24.0.1, SVG Export Plug-In . SVG Version: 6.00 Build 0)  -->
<svg version="1.1" id="Layer_1" xmlns="http://www.w3.org/2000/svg" xmlns:xlink="http://www.w3.org/1999/xlink" x="0px" y="0px"
	 viewBox="0 0 5000 1560" style="enable-background:new 0 0 5000 1560;" xml:space="preserve">
<style type="text/css">
	.st0{fill:#37525D;}
	.st1{fill-rule:evenodd;clip-rule:evenodd;fill:#E6E6E6;}
	.st2{fill-rule:evenodd;clip-rule:evenodd;fill:#FFB703;}
	.st3{fill-rule:evenodd;clip-rule:evenodd;fill:#CCCCCC;}
	.st4{fill-rule:evenodd;clip-rule:evenodd;fill:#DD6E42;}
	.st5{fill-rule:evenodd;clip-rule:evenodd;fill:#8CEAFA;}
	.st6{fill-rule:evenodd;clip-rule:evenodd;fill:#E8DAB2;}
	.st7{fill-rule:evenodd;clip-rule:evenodd;fill:#FB8500;}
	.st8{fill-rule:evenodd;clip-rule:evenodd;fill:#FFFF00;}
	.st9{fill:#51717F;}
	.st10{fill-rule:evenodd;clip-rule:evenodd;fill:#FF6600;}
	.st11{fill:#FF0000;}
	.st12{fill-rule:evenodd;clip-rule:evenodd;fill:#00CCFF;}
	.st13{fill:#FFFFFF;}
	.st14{fill:#FF6600;}
	.st15{fill-rule:evenodd;clip-rule:evenodd;fill:#37525D;}
</style>
<g>
	<path class="st0" d="M669.4,251.1c-15.2-31-47.7-39.8-78.9-39.8c-37.1,0.2-77.8,17.2-77.8,58.6c0,45,37.8,56.1,78.9,60.8
		c26.7,2.9,46.6,10.6,46.6,29.6c0,21.7-22.4,30.1-46.4,30.1c-24.4,0-47.7-9.7-56.5-31.9L503.6,375c14.9,36.6,46.6,49.3,87.8,49.3
		c44.8,0,84.4-19.2,84.4-64c0-48-39.1-58.8-81-64c-24.2-2.9-44.8-7.9-44.8-25.3c0-14.9,13.6-26.7,41.6-26.7
		c21.9,0,40.7,10.9,47.7,22.4L669.4,251.1z M799.5,214.2c-69.4,0-103.4,52.9-103.4,105.9s32.8,103.8,103.4,103.8
		c70.8,0,102.7-52,103.1-104C903.3,267.1,868.9,214.2,799.5,214.2L799.5,214.2z M799.5,248.6c47.5,0,66.5,38,65.8,71.7
		c-0.5,33-18.3,68.8-65.8,68.8c-47.3,0-65.1-35.3-66-68.3C732.8,286.8,752.2,248.6,799.5,248.6L799.5,248.6z M968.5,419.1v-74.4
		h100.9v-35.1H968.5v-54.7H1075v-36.4H930.7v200.6H968.5z M1162.1,419.1h38V252.2h63.8v-34.4c-58.4,0-107.4,0-165.6,0v34.4h63.8
		V419.1z M1585.5,217.8H1543L1497.1,363l-50.2-145.2h-24.7L1373.3,363l-47.5-145.2h-42.5l74,201.3h32.1l24.4-62.7l20.8-64.2
		l21.3,63.6l25.1,63.3h32.1L1585.5,217.8z M1768.5,419.1h41.4l-90.3-201.3h-41.4l-90,201.3h40.9l17.2-37.8h105.2L1768.5,419.1z
		 M1736.4,345.8h-74.6l37.3-85.7L1736.4,345.8z M2005.3,416.6l-61.1-68.8c38.2-7.7,50.9-35.5,50.9-63.3c0-34.8-24.9-66.5-72.4-66.7
		c-31.9,0.2-63.8,0-95.7,0v201.3h38v-67.2h36.4l58.6,67.2h45.2V416.6z M1922.8,253.1c24,0,34.6,16.3,34.6,32.3
		c0,16.3-10.4,32.3-34.6,32.3h-57.7v-64.7H1922.8z M2170.7,381.8h-112.9v-45.2h108.8V301h-108.8v-46.4h112.9v-36.9h-150.4
		c0,67.2,0,134.4,0,201.3h150.4V381.8z M2334.4,217.8c-24.7,0-54.3,0-78.9,0v201.3c24.7,0,54.3,0,78.9,0
		c70.3,0,101.3-51.3,100.7-102.2C2434.2,266.9,2403.4,217.8,2334.4,217.8L2334.4,217.8z M2293,253.8h41.4c43.7,0,62,31.2,62.9,62.7
		c0.9,32.8-17.2,66.3-62.9,66.3H2293V253.8z M2609.9,381.8h-112.9v-45.2h108.8V301h-108.8v-46.4h112.9v-36.9h-150.4
		c0,67.2,0,134.4,0,201.3h150.4V381.8z M2835.2,217.8h-42.5l-60.8,156.8l-60.6-156.8h-42.5l83.5,202.2h39.4L2835.2,217.8z
		 M3008.5,381.8h-113.1v-45.2h109V301h-109v-46.4h113.1v-36.9h-150.6c0,67.2,0,134.4,0,201.3h150.6V381.8z M3037.7,217.8v201.3H3179
		v-35.1h-103.4V217.8H3037.7z M3294.2,214.2c-69.4,0-103.4,52.9-103.4,105.9s32.8,103.8,103.4,103.8c70.8,0,102.7-52,103.1-104
		C3398,267.1,3363.4,214.2,3294.2,214.2L3294.2,214.2z M3294.2,248.6c47.5,0,66.5,38,65.8,71.7c-0.7,33-18.3,68.8-65.8,68.8
		c-47.3,0-65.1-35.3-66-68.3C3227.2,286.8,3246.9,248.6,3294.2,248.6L3294.2,248.6z M3463.1,254h56.8c48.4,0,48.6,71.3,0,71.3h-56.8
		V254z M3519.9,217.8c-31.4-0.2-63.1,0-94.8,0v201.3h38v-59h56.8C3618.5,360.1,3618.3,217.8,3519.9,217.8L3519.9,217.8z
		 M3794.7,419.1h37.8V218.5h-43.4l-62.9,86.2l-62.9-86.2h-43.7v200.6h38V273.2l64,87.5h7.5l65.6-87.3V419.1z M4018.2,381.8h-113.1
		v-45.2h109V301h-109v-46.4h113.1v-36.9h-150.6c0,67.2,0,134.4,0,201.3h150.6V381.8z M4185.6,342.7L4087,217.8h-30.8v201.3h38V283.4
		l105.6,135.7l0,0h23.8V217.8h-38V342.7z M4310.2,419.1h38V252.2h63.8v-34.4c-58.4,0-107.4,0-165.6,0v34.4h63.8V419.1z"/>
	<path class="st0" d="M491.2,492.6c-8.6,0-10.6,12.4-2,14.9c0.7,0.2,1.4,0.2,2,0.2h76.7c8.8,0,10.6-12.4,2.3-14.9
		c-0.9-0.2-1.4-0.2-2.3-0.2H491.2z M4424.4,507.8c8.6,0,10.6-12.4,2-14.9c-0.7-0.2-1.4-0.2-2-0.2h-11.3c-8.6,0-10.6,12.4-2,14.9
		c0.7,0.2,1.4,0.2,2,0.2H4424.4z M4367.2,507.8c8.8,0,10.6-12.4,2.3-14.9c-0.9-0.2-1.4-0.2-2.3-0.2h-76.7c-8.6,0-10.6,12.4-2,14.9
		c0.7,0.2,1.4,0.2,2,0.2H4367.2z M4244.6,507.8c8.8,0,10.6-12.4,2.3-14.9c-0.9-0.2-1.4-0.2-2.3-0.2h-76.5c-8.8,0-10.6,12.4-2.3,14.9
		c0.7,0.2,1.4,0.2,2.3,0.2H4244.6z M4122,507.8c8.8,0,10.6-12.4,2.3-14.9c-0.7-0.2-1.4-0.2-2.3-0.2h-76.5c-8.8,0-10.6,12.4-2.3,14.9
		c0.9,0.2,1.4,0.2,2.3,0.2H4122z M3999.6,507.8c8.6,0,10.6-12.4,2-14.9c-0.7-0.2-1.4-0.2-2-0.2H3923c-8.8,0-10.6,12.4-2.3,14.9
		c0.9,0.2,1.4,0.2,2.3,0.2H3999.6z M3877.1,507.8c8.6,0,10.6-12.4,2-14.9c-0.7-0.2-1.4-0.2-2-0.2h-76.7c-8.8,0-10.6,12.4-2,14.9
		c0.7,0.2,1.4,0.2,2,0.2H3877.1z M3754.5,507.8c8.8,0,10.6-12.4,2-14.9c-0.7-0.2-1.4-0.2-2-0.2h-76.7c-8.6,0-10.6,12.4-2,14.9
		c0.7,0.2,1.4,0.2,2,0.2H3754.5z M3631.9,507.8c8.8,0,10.6-12.4,2.3-14.9c-0.9-0.2-1.4-0.2-2.3-0.2h-76.7c-8.6,0-10.6,12.4-2,14.9
		c0.7,0.2,1.4,0.2,2,0.2H3631.9z M3509.3,507.8c8.8,0,10.6-12.4,2.3-14.9c-0.9-0.2-1.4-0.2-2.3-0.2h-76.5c-8.8,0-10.9,12.4-2.3,14.9
		c0.7,0.2,1.4,0.2,2.3,0.2H3509.3z M3386.7,507.8c8.8,0,10.6-12.4,2.3-14.9c-0.7-0.2-1.4-0.2-2.3-0.2h-76.5
		c-8.8,0-10.6,12.4-2.3,14.9c0.9,0.2,1.4,0.2,2.3,0.2H3386.7z M3264.3,507.8c8.6,0,10.6-12.4,2-14.9c-0.7-0.2-1.4-0.2-2-0.2h-76.7
		c-8.8,0-10.6,12.4-2.3,14.9c0.9,0.2,1.4,0.2,2.3,0.2H3264.3z M3141.7,507.8c8.6,0,10.6-12.4,2-14.9c-0.7-0.2-1.4-0.2-2-0.2H3065
		c-8.8,0-10.6,12.4-2,14.9c0.7,0.2,1.4,0.2,2,0.2H3141.7z M3019.1,507.8c8.6,0,10.6-12.4,2-14.9c-0.7-0.2-1.4-0.2-2-0.2h-76.7
		c-8.6,0-10.6,12.4-2,14.9c0.7,0.2,1.4,0.2,2,0.2H3019.1z M2896.5,507.8c8.8,0,10.6-12.4,2-14.9c-0.7-0.2-1.1-0.2-2-0.2h-76.7
		c-8.6,0-10.6,12.4-2,14.9c0.7,0.2,1.4,0.2,2,0.2H2896.5z M2773.9,507.8c8.8,0,10.6-12.4,2.3-14.9c-0.9-0.2-1.4-0.2-2.3-0.2h-76.5
		c-8.8,0-10.9,12.4-2.3,14.9c0.7,0.2,1.4,0.2,2.3,0.2H2773.9z M2651.3,507.8c8.8,0,10.6-12.4,2.3-14.9c-0.9-0.2-1.4-0.2-2.3-0.2
		h-76.5c-8.8,0-10.6,12.4-2.3,14.9c0.9,0.2,1.4,0.2,2.3,0.2H2651.3z M2528.7,507.8c8.8,0,10.9-12.4,2.3-14.9
		c-0.7-0.2-1.4-0.2-2.3-0.2h-76.5c-8.8,0-10.6,12.4-2.3,14.9c0.9,0.2,1.4,0.2,2.3,0.2H2528.7z M2406.4,507.8c8.6,0,10.6-12.4,2-14.9
		c-0.7-0.2-1.4-0.2-2-0.2h-76.7c-8.8,0-10.6,12.4-2,14.9c0.7,0.2,1.1,0.2,2,0.2H2406.4z M2283.8,507.8c8.6,0,10.6-12.4,2-14.9
		c-0.7-0.2-1.4-0.2-2-0.2h-76.7c-8.6,0-10.6,12.4-2,14.9c0.7,0.2,1.4,0.2,2,0.2H2283.8z M2161.2,507.8c8.8,0,10.6-12.4,2-14.9
		c-0.7-0.2-1.1-0.2-2-0.2h-76.7c-8.6,0-10.6,12.4-2,14.9c0.7,0.2,1.4,0.2,2,0.2H2161.2z M2038.6,507.8c8.8,0,10.6-12.4,2.3-14.9
		c-0.9-0.2-1.4-0.2-2.3-0.2h-76.7c-8.6,0-10.6,12.4-2,14.9c0.7,0.2,1.4,0.2,2,0.2H2038.6z M1916,507.8c8.8,0,10.6-12.4,2.3-14.9
		c-0.9-0.2-1.4-0.2-2.3-0.2h-76.5c-8.8,0-10.6,12.4-2.3,14.9c0.9,0.2,1.4,0.2,2.3,0.2H1916z M1793.4,507.8c8.8,0,10.9-12.4,2.3-14.9
		c-0.7-0.2-1.4-0.2-2.3-0.2h-76.5c-8.8,0-10.6,12.4-2.3,14.9c0.9,0.2,1.4,0.2,2.3,0.2H1793.4z M1671,507.8c8.6,0,10.6-12.4,2-14.9
		c-0.7-0.2-1.4-0.2-2-0.2h-76.7c-8.8,0-10.6,12.4-2.3,14.9c0.9,0.2,1.4,0.2,2.3,0.2H1671z M1548.4,507.8c8.6,0,10.6-12.4,2-14.9
		c-0.7-0.2-1.4-0.2-2-0.2h-76.7c-8.6,0-10.6,12.4-2,14.9c0.7,0.2,1.4,0.2,2,0.2H1548.4z M1425.8,507.8c8.8,0,10.6-12.4,2-14.9
		c-0.7-0.2-1.4-0.2-2-0.2h-76.7c-8.6,0-10.6,12.4-2,14.9c0.7,0.2,1.4,0.2,2,0.2H1425.8z M1303.2,507.8c8.8,0,10.6-12.4,2.3-14.9
		c-0.9-0.2-1.4-0.2-2.3-0.2h-76.7c-8.6,0-10.6,12.4-2,14.9c0.7,0.2,1.4,0.2,2,0.2H1303.2z M1180.6,507.8c8.8,0,10.6-12.4,2.3-14.9
		c-0.9-0.2-1.4-0.2-2.3-0.2h-76.5c-8.8,0-10.6,12.4-2.3,14.9c0.7,0.2,1.4,0.2,2.3,0.2H1180.6z M1058,507.8c8.8,0,10.6-12.4,2.3-14.9
		c-0.7-0.2-1.4-0.2-2.3-0.2h-76.5c-8.8,0-10.6,12.4-2.3,14.9c0.9,0.2,1.4,0.2,2.3,0.2H1058z M935.7,507.8c8.6,0,10.6-12.4,2-14.9
		c-0.7-0.2-1.4-0.2-2-0.2H859c-8.8,0-10.6,12.4-2.3,14.9c0.9,0.2,1.4,0.2,2.3,0.2H935.7z M813.1,507.8c8.6,0,10.6-12.4,2-14.9
		c-0.7-0.2-1.4-0.2-2-0.2h-76.7c-8.8,0-10.6,12.4-2,14.9c0.7,0.2,1.4,0.2,2,0.2H813.1z M690.5,507.8c8.8,0,10.6-12.4,2-14.9
		c-0.7-0.2-1.4-0.2-2-0.2h-76.7c-8.6,0-10.6,12.4-2,14.9c0.7,0.2,1.4,0.2,2,0.2H690.5z"/>
	<path class="st0" d="M2465.6,500.3c0-9.5-14-10.9-15.4-0.9v0.7l-0.2,76.7c0,9.3,13.8,10.6,15.4,0.9v-0.9L2465.6,500.3z M2488,687.6
		c-0.2,17-13.6,30.5-30.8,30.5c-17,0-30.5-13.6-30.5-30.5c0.2-14.5,10-26.2,23.1-29.6l0.2-35.3V622c1.4-10,15.2-8.6,15.2,0.7V658
		C2478.3,661.4,2488,673.4,2488,687.6L2488,687.6z"/>
	<path class="st0" d="M1154.4,500.1c0-8.6-12.4-10.6-14.9-2c-0.2,0.7-0.5,1.4-0.5,2v76.7c0,8.8,12.4,10.6,14.9,2.3
		c0.2-0.9,0.5-1.4,0.5-2.3V500.1z M1177,687.6c0,17-13.8,30.5-30.5,30.5c-17,0-30.5-13.8-30.5-30.5c0-14.3,9.7-26.2,22.8-29.6
		l0.2-35.3c0-0.7,0-1.4,0.2-2c2.5-8.6,14.9-6.6,14.9,2V658C1167.3,661.4,1177,673.4,1177,687.6L1177,687.6z"/>
	<path class="st0" d="M3121.1,500.3c0-9.5-13.8-10.9-15.2-0.9v0.7l-0.2,76.7c0,9.3,13.8,10.6,15.2,0.9v-0.9L3121.1,500.3z
		 M3143.7,689.6c-0.2,17-13.8,30.5-30.8,30.5c-17-0.2-30.5-13.8-30.5-30.8c0.2-14.3,9.7-26.2,23.1-29.6v-37.1V622
		c1.6-10,15.4-8.6,15.4,0.7V660C3134,663.4,3143.7,675.2,3143.7,689.6L3143.7,689.6z"/>
	<path class="st0" d="M3776.8,500.3c0-9.5-13.8-10.9-15.4-0.9v0.7l-0.2,76.7c0,9.3,14,10.6,15.4,0.9v-0.9L3776.8,500.3z
		 M3799.2,689.6c0,17-13.6,30.5-30.5,30.5c-17-0.2-30.5-13.8-30.5-30.8c0-14.3,9.7-26.2,22.8-29.6l0.2-37.1V622
		c1.4-10,15.4-8.6,15.4,0.7l-0.2,37.3C3789.7,663.4,3799.2,675.2,3799.2,689.6L3799.2,689.6z"/>
	<path class="st0" d="M498.9,500.1c0-8.6-12.4-10.6-14.9-2c-0.2,0.7-0.2,1.4-0.2,2v76.7c0,8.8,12.4,10.6,14.9,2.3
		c0.2-0.9,0.2-1.4,0.2-2.3V500.1z M522,689.6c0,16.7-13.8,30.5-30.8,30.5c-16.7,0-30.5-13.8-30.5-30.5c0-14.3,9.7-26.2,23.1-29.9
		v-37.1c0-0.7,0-1.4,0.2-2c2.5-8.6,14.9-6.6,14.9,2v37.1C512.2,663.4,522,675.4,522,689.6L522,689.6z"/>
	<path class="st0" d="M4432.1,500.1c0-8.6-12.7-10.6-15.2-2c-0.2,0.7-0.2,1.4-0.2,2v76.7c0,8.8,12.4,10.6,14.9,2.3
		c0.2-0.9,0.5-1.4,0.5-2.3V500.1z M4455,689.6c0,16.7-13.8,30.5-30.5,30.5c-17,0-30.8-13.8-30.8-30.5c0-14.3,10-26.2,23.1-29.9
		v-37.1c0-0.7,0-1.4,0.2-2c2.5-8.6,15.2-6.6,15.2,2v37.1C4445.2,663.4,4455,675.4,4455,689.6L4455,689.6z"/>
	<path class="st0" d="M1809.9,500.1c0-8.6-12.4-10.6-14.9-2c-0.2,0.7-0.5,1.4-0.5,2v76.7c0,8.8,12.4,10.6,14.9,2.3
		c0.2-0.9,0.5-1.4,0.5-2.3V500.1z M1832.5,687.6c0,17-13.8,30.5-30.5,30.5c-17,0-30.8-13.8-30.8-30.5c0-14.3,10-26.2,23.1-29.6
		v-35.3c0-0.7,0.2-1.4,0.5-2c2.5-8.6,14.9-6.6,14.9,2V658C1822.8,661.4,1832.5,673.4,1832.5,687.6L1832.5,687.6z"/>
	<path class="st0" d="M315.9,1289c7.7,0,13.3,1.6,16.7,4.5c3.6,2.9,5.4,7.5,5.4,13.8c0,6.1-1.8,10.6-5.4,13.6
		c-3.6,2.9-9.3,4.3-16.7,4.3h-6.6v14H298V1289H315.9z M316.8,1315.5c3.8,0,6.3-0.7,7.7-2.3s2-3.6,2-6.6c0-2.9-0.9-5-2.7-6.1
		c-1.8-1.4-4.5-2-8.1-2h-6.3v17H316.8z M346.7,1339.3V1289H358v40.3h21.3v10H346.7z M423.3,1339.3l-4.8-10.9h-21l-4.8,10.9H381
		l21.7-50.2h10.9l21.5,50.2H423.3z M408.2,1304l-6.3,14.5h12.4L408.2,1304z M476,1289h11.3v50.2H476l-23.8-31.4v31.4H441V1289h10.6
		l24.4,32.3V1289z M534.9,1289h11.1v50.2h-11.1l-24-31.4v31.4h-11.1V1289h10.4l24.7,32.3V1289z M558.4,1289h11.1v50.2h-11.1V1289z
		 M617,1289h11.3v50.2H617l-23.8-31.4v31.4h-11.3V1289h10.4l24.7,32.3V1289z M673.3,1313.7h11.1v17.9c-5,5.4-11.8,8.1-20.6,8.1
		c-7.5,0-13.6-2.3-18.5-7.2c-5-5-7.5-11.1-7.5-18.5c0-7.5,2.5-13.6,7.7-18.5c5-5,11.1-7.5,18.3-7.5c7.2,0,13.6,2.3,18.8,7l-5.7,8.4
		c-2.3-1.8-4.5-3.2-6.3-3.8c-1.8-0.9-3.8-1.1-6.1-1.1c-4.3,0-7.9,1.4-10.9,4.3s-4.3,6.6-4.3,11.3c0,4.8,1.4,8.6,4.1,11.5
		c2.9,2.7,6.3,4.3,10.2,4.3c3.8,0,7-0.9,9.7-2.3V1313.7z"/>
	<path class="st0" d="M892.9,1305.8c0,7.9-3.2,13.1-9.5,15.4l12.7,18.1h-13.8l-11.1-16.1h-7.9v16.1h-11.1V1289h19
		c7.9,0,13.3,1.4,16.7,3.8C891.3,1295.6,892.9,1299.9,892.9,1305.8L892.9,1305.8z M871.6,1313.5c3.8,0,6.3-0.7,7.7-1.8
		c1.4-1.4,2-3.2,2-5.9s-0.7-4.5-2-5.7c-1.4-0.9-4.1-1.6-7.5-1.6h-8.6v14.9H871.6z M940.6,1289v10h-25.1v10.4h22.6v9.5h-22.6v10.4
		h25.8v10h-36.9V1289H940.6z M1001.3,1313.7c0,5.4-1.4,10-4.1,14.3c-2.7,4.1-6.1,7.2-10.6,9.3c0.5,0.7,1.1,1.4,2,1.8
		c0.9,0.5,1.8,0.7,2.9,0.7c0.9,0,1.8,0,2.9-0.5c0.9-0.2,1.6-0.7,2.3-1.1c1.1-0.9,2-1.8,2.5-2.9l5.9,7c-4.1,4.3-9.3,6.6-15.4,6.6
		c-2.9,0-5.7-0.7-8.6-2.3c-2.7-1.6-4.8-3.8-6.3-6.8c-7.5,0-13.6-2.5-18.8-7.5c-5-5-7.5-11.1-7.5-18.5c0-7.2,2.5-13.3,7.5-18.3
		c5.2-5,11.3-7.5,18.8-7.5s13.8,2.5,18.8,7.5C998.5,1300.4,1001.3,1306.5,1001.3,1313.7L1001.3,1313.7z M989.7,1313.9
		c0-4.5-1.4-8.4-4.3-11.5c-2.9-3.2-6.3-4.8-10.6-4.8c-4.1,0-7.7,1.6-10.4,4.8c-2.9,3.2-4.5,7-4.5,11.5c0,4.3,1.6,8.1,4.5,11.3
		c2.7,3.2,6.3,4.8,10.4,4.8c4.3,0,7.7-1.6,10.6-4.8C988.4,1322.1,989.7,1318.2,989.7,1313.9L989.7,1313.9z M1024.1,1326.4
		c1.8,2.3,4.3,3.4,7.5,3.4c3.2,0,5.7-1.1,7.5-3.4c1.8-2.5,2.7-5.7,2.7-9.7V1289h11.3v28c0,7.2-2,12.9-6.1,16.7
		c-4.1,3.8-9,5.9-15.4,5.9s-11.5-2-15.4-5.9c-4.1-3.8-6.1-9.5-6.1-16.7v-28h11.1v27.6C1021.2,1320.7,1022.1,1323.9,1024.1,1326.4
		L1024.1,1326.4z M1064.6,1289h11.3v50.2h-11.3V1289z M1129.1,1305.8c0,7.9-3.4,13.1-9.7,15.4l12.9,18.1h-13.8l-11.3-16.1h-7.7v16.1
		h-11.1V1289h19c7.7,0,13.3,1.4,16.5,3.8C1127.2,1295.6,1129.1,1299.9,1129.1,1305.8L1129.1,1305.8z M1107.6,1313.5
		c3.8,0,6.6-0.7,7.9-1.8c1.4-1.4,2-3.2,2-5.9s-0.7-4.5-2-5.7c-1.6-0.9-4.1-1.6-7.7-1.6h-8.4v14.9H1107.6z M1176.6,1289v10h-24.9
		v10.4h22.4v9.5h-22.4v10.4h25.8v10h-37.1V1289H1176.6z M1232.4,1307.6l-13.6,27.4h-6.8l-13.3-27.4v31.7h-11.3V1289h15.2l12.9,27.6
		l13.1-27.6h14.9v50.2h-11.1V1307.6z M1292.1,1289v10H1267v10.4h22.6v9.5H1267v10.4h25.8v10h-36.9V1289H1292.1z M1338.1,1289h11.1
		v50.2h-11.1l-24-31.4v31.4H1303V1289h10.4l24.7,32.3V1289z M1382.8,1298.8v40.5h-11.3v-40.5h-14v-9.7h39.6v9.7H1382.8z
		 M1421.1,1297.6c-2,0-3.4,0.5-4.5,1.4s-1.6,2-1.6,3.6c0,1.4,0.7,2.5,2,3.4c1.1,0.9,4.3,1.8,9,3.2c4.8,1.1,8.4,2.9,11.1,5.2
		c2.7,2.3,3.8,5.9,3.8,10.2c0,4.5-1.6,8.1-5,11.1c-3.4,2.7-7.9,4.1-13.3,4.1c-7.9,0-15.2-2.9-21.5-8.8l6.8-8.1
		c5.4,4.8,10.4,7.2,14.9,7.2c2,0,3.6-0.5,5-1.4c1.1-0.9,1.6-2,1.6-3.6c0-1.6-0.5-2.7-1.8-3.6c-1.1-0.9-3.6-1.8-7.5-2.7
		c-5.7-1.4-10-3.2-12.7-5.4c-2.7-2.3-4.1-5.7-4.1-10.4c0-4.8,1.6-8.6,5-11.1c3.6-2.5,7.7-3.8,12.9-3.8c3.4,0,6.8,0.5,10.2,1.6
		c3.2,1.4,6.1,2.9,8.6,5l-5.7,8.1C1430.1,1299.4,1425.6,1297.6,1421.1,1297.6L1421.1,1297.6z"/>
	<path class="st0" d="M1683.9,1289c9,0,15.8,2.3,20.6,6.6c5,4.3,7.2,10.4,7.2,18.3c0,7.7-2.3,14-7,18.5c-4.5,4.5-11.8,6.8-21.3,6.8
		h-17.2V1289H1683.9z M1684.6,1329.3c5,0,9-1.4,11.8-3.8c2.7-2.7,4.1-6.3,4.1-11.3c0-5-1.4-8.8-4.1-11.3c-2.7-2.7-7-4.1-12.7-4.1
		h-6.3v30.5H1684.6z M1757.6,1289v10h-25.1v10.4h22.6v9.5h-22.6v10.4h25.8v10h-36.9V1289H1757.6z M1784.6,1297.6
		c-1.8,0-3.4,0.5-4.3,1.4c-1.1,0.9-1.8,2-1.8,3.6c0,1.4,0.7,2.5,2,3.4c1.4,0.9,4.3,1.8,9,3.2c4.8,1.1,8.6,2.9,11.1,5.2
		c2.7,2.3,4.1,5.9,4.1,10.2c0,4.5-1.8,8.1-5,11.1c-3.4,2.7-7.9,4.1-13.3,4.1c-7.9,0-15.2-2.9-21.5-8.8l6.6-8.1
		c5.4,4.8,10.4,7.2,15.2,7.2c2,0,3.6-0.5,4.8-1.4c1.1-0.9,1.8-2,1.8-3.6c0-1.6-0.7-2.7-1.8-3.6c-1.4-0.9-3.8-1.8-7.5-2.7
		c-5.9-1.4-10.2-3.2-12.9-5.4c-2.7-2.3-4.1-5.7-4.1-10.4c0-4.8,1.8-8.6,5.2-11.1c3.4-2.5,7.7-3.8,12.9-3.8c3.2,0,6.6,0.5,10,1.6
		c3.4,1.4,6.3,2.9,8.8,5l-5.7,8.1C1793.6,1299.4,1789.3,1297.6,1784.6,1297.6L1784.6,1297.6z M1814.2,1289h11.3v50.2h-11.3V1289z
		 M1870.3,1313.7h11.3v17.9c-5,5.4-11.8,8.1-20.6,8.1c-7.5,0-13.6-2.3-18.5-7.2c-5-5-7.5-11.1-7.5-18.5c0-7.5,2.5-13.6,7.5-18.5
		c5.2-5,11.3-7.5,18.5-7.5s13.6,2.3,18.8,7l-5.9,8.4c-2.3-1.8-4.3-3.2-6.1-3.8c-1.8-0.9-4.1-1.1-6.1-1.1c-4.3,0-7.9,1.4-10.9,4.3
		c-2.9,2.9-4.3,6.6-4.3,11.3c0,4.8,1.4,8.6,4.1,11.5c2.9,2.7,6.1,4.3,10.2,4.3c3.8,0,7-0.9,9.5-2.3V1313.7z M1926.8,1289h11.1v50.2
		h-11.1l-24-31.4v31.4h-11.3V1289h10.6l24.7,32.3V1289z"/>
	<path class="st0" d="M2336.2,1329.3c5.4,0,10-2.3,13.3-6.6l7.2,7.5c-5.7,6.3-12.4,9.5-20.1,9.5s-14-2.3-19.2-7.2
		c-5-5-7.5-11.1-7.5-18.5c0-7.5,2.7-13.6,7.7-18.5c5.2-5,11.3-7.5,18.8-7.5c8.1,0,15.2,3.2,20.6,9.3l-7,7.9
		c-3.4-4.3-7.9-6.6-13.1-6.6c-4.3,0-7.9,1.4-10.9,4.1c-2.9,2.9-4.5,6.6-4.5,11.3c0,4.5,1.6,8.4,4.3,11.1
		C2328.8,1327.9,2332.2,1329.3,2336.2,1329.3L2336.2,1329.3z M2403,1313.9c0-4.5-1.4-8.4-4.3-11.5c-2.9-3.2-6.3-4.8-10.6-4.8
		c-4.1,0-7.7,1.6-10.6,4.8c-2.7,3.2-4.3,7-4.3,11.5c0,4.3,1.6,8.1,4.3,11.3c2.9,3.2,6.6,4.8,10.6,4.8c4.3,0,7.7-1.6,10.6-4.8
		C2401.6,1322.1,2403,1318.2,2403,1313.9L2403,1313.9z M2406.8,1332.2c-5,5-11.3,7.5-18.8,7.5c-7.5,0-13.6-2.5-18.8-7.5
		c-5-5-7.5-11.1-7.5-18.5c0-7.2,2.5-13.3,7.5-18.3c5.2-5,11.3-7.5,18.8-7.5c7.5,0,13.8,2.5,18.8,7.5c5,5,7.7,11.1,7.7,18.3
		C2414.5,1321.2,2411.8,1327.3,2406.8,1332.2L2406.8,1332.2z M2441.6,1289c9,0,15.8,2.3,20.6,6.6c4.8,4.3,7.2,10.4,7.2,18.3
		c0,7.7-2.3,14-7,18.5c-4.8,4.5-11.8,6.8-21.5,6.8h-17V1289H2441.6z M2442.3,1329.3c5,0,9-1.4,11.8-3.8c2.7-2.7,4.1-6.3,4.1-11.3
		c0-5-1.4-8.8-4.1-11.3c-2.7-2.7-7-4.1-12.7-4.1h-6.3v30.5H2442.3z M2479.2,1289h11.1v50.2h-11.1V1289z M2537.8,1289h11.3v50.2
		h-11.3l-24-31.4v31.4h-11.1V1289h10.4l24.7,32.3V1289z M2593.9,1313.7h11.3v17.9c-5,5.4-11.8,8.1-20.6,8.1
		c-7.5,0-13.6-2.3-18.5-7.2c-5-5-7.5-11.1-7.5-18.5c0-7.5,2.5-13.6,7.5-18.5c5.2-5,11.3-7.5,18.5-7.5c7.2,0,13.3,2.3,18.8,7
		l-5.9,8.4c-2.3-1.8-4.3-3.2-6.1-3.8c-2-0.9-4.1-1.1-6.1-1.1c-4.3,0-7.9,1.4-10.9,4.3s-4.3,6.6-4.3,11.3c0,4.8,1.4,8.6,4.1,11.5
		c2.9,2.7,6.1,4.3,10.2,4.3c3.8,0,7-0.9,9.5-2.3V1313.7z"/>
	<path class="st0" d="M2983.8,1298.8v40.5h-11.3v-40.5h-14.3v-9.7h39.6v9.7H2983.8z M3042.4,1289v10h-25.1v10.4h22.6v9.5h-22.6v10.4
		h25.8v10h-36.9V1289H3042.4z M3069.3,1297.6c-1.8,0-3.4,0.5-4.5,1.4c-1.1,0.9-1.6,2-1.6,3.6c0,1.4,0.7,2.5,2,3.4
		c1.4,0.9,4.3,1.8,9,3.2c4.8,1.1,8.6,2.9,11.1,5.2c2.7,2.3,4.1,5.9,4.1,10.2c0,4.5-1.8,8.1-5.2,11.1c-3.4,2.7-7.7,4.1-13.3,4.1
		c-7.9,0-14.9-2.9-21.5-8.8l6.8-8.1c5.4,4.8,10.4,7.2,14.9,7.2c2,0,3.8-0.5,5-1.4c1.1-0.9,1.8-2,1.8-3.6c0-1.6-0.7-2.7-2-3.6
		c-1.1-0.9-3.6-1.8-7.2-2.7c-5.9-1.4-10.2-3.2-12.9-5.4c-2.7-2.3-4.1-5.7-4.1-10.4c0-4.8,1.8-8.6,5.2-11.1c3.4-2.5,7.7-3.8,12.7-3.8
		c3.4,0,6.8,0.5,10.2,1.6c3.4,1.4,6.3,2.9,8.8,5l-5.9,8.1C3078.4,1299.4,3073.8,1297.6,3069.3,1297.6L3069.3,1297.6z M3119.8,1298.8
		v40.5h-11.3v-40.5h-14v-9.7h39.6v9.7H3119.8z M3142.2,1289h11.3v50.2h-11.3V1289z M3200.7,1289h11.3v50.2h-11.3l-23.8-31.4v31.4
		h-11.3V1289h10.6l24.4,32.3V1289z M3257.1,1313.7h11.3v17.9c-5,5.4-12,8.1-20.8,8.1c-7.2,0-13.6-2.3-18.5-7.2
		c-5-5-7.5-11.1-7.5-18.5c0-7.5,2.5-13.6,7.7-18.5c5-5,11.1-7.5,18.3-7.5c7.2,0,13.6,2.3,18.8,7l-5.7,8.4c-2.3-1.8-4.5-3.2-6.3-3.8
		c-1.8-0.9-3.8-1.1-6.1-1.1c-4.3,0-7.9,1.4-10.9,4.3s-4.3,6.6-4.3,11.3c0,4.8,1.4,8.6,4.3,11.5c2.7,2.7,6.1,4.3,10,4.3
		c3.8,0,7-0.9,9.7-2.3V1313.7z"/>
	<path class="st0" d="M3643.4,1289c8.8,0,15.6,2.3,20.6,6.6c4.8,4.3,7,10.4,7,18.3c0,7.7-2.3,14-7,18.5c-4.5,4.5-11.8,6.8-21.3,6.8
		h-17.2V1289H3643.4z M3643.8,1329.3c5.2,0,9-1.4,11.8-3.8c2.7-2.7,4.3-6.3,4.3-11.3c0-5-1.6-8.8-4.3-11.3c-2.7-2.7-7-4.1-12.7-4.1
		h-6.1v30.5H3643.8z M3716.9,1289v10H3692v10.4h22.4v9.5H3692v10.4h25.8v10h-37.1V1289H3716.9z M3745.4,1289c7.7,0,13.3,1.6,17,4.5
		c3.4,2.9,5.2,7.5,5.2,13.8c0,6.1-1.8,10.6-5.4,13.6c-3.6,2.9-9,4.3-16.5,4.3h-6.8v14h-11.1V1289H3745.4z M3746.5,1315.5
		c3.6,0,6.3-0.7,7.5-2.3c1.4-1.6,2-3.6,2-6.6c0-2.9-0.9-5-2.5-6.1c-1.8-1.4-4.5-2-8.1-2h-6.6v17H3746.5z M3776.4,1339.3V1289h11.1
		v40.3h21.5v10H3776.4z M3854.2,1313.9c0-4.5-1.4-8.4-4.3-11.5s-6.3-4.8-10.6-4.8c-4.1,0-7.7,1.6-10.6,4.8c-2.7,3.2-4.3,7-4.3,11.5
		c0,4.3,1.6,8.1,4.3,11.3c2.9,3.2,6.6,4.8,10.6,4.8c4.3,0,7.7-1.6,10.6-4.8C3852.8,1322.1,3854.2,1318.2,3854.2,1313.9
		L3854.2,1313.9z M3858.1,1332.2c-5.2,5-11.3,7.5-18.8,7.5s-13.6-2.5-18.8-7.5c-5-5-7.7-11.1-7.7-18.5c0-7.2,2.7-13.3,7.7-18.3
		c5.2-5,11.3-7.5,18.8-7.5s13.6,2.5,18.8,7.5c5,5,7.7,11.1,7.7,18.3C3865.7,1321.2,3863,1327.3,3858.1,1332.2L3858.1,1332.2z
		 M3894.9,1339.3h-11.1v-19.9l-17.4-30.3h12l10.9,18.5l10.9-18.5h12.2l-17.4,30.3V1339.3z"/>
	<path class="st0" d="M4191.7,1307.6l-13.6,27.4h-6.8l-13.3-27.4v31.7h-11.3V1289h15.2l12.9,27.6l13.1-27.6h15.2v50.2h-11.3V1307.6z
		 M4250.9,1339.3l-4.5-10.9h-21l-4.8,10.9h-12l21.7-50.2h10.9l21.7,50.2H4250.9z M4235.8,1304l-6.3,14.5h12.7L4235.8,1304z
		 M4268.8,1289h11.1v50.2h-11.1V1289z M4327.4,1289h11.3v50.2h-11.3l-24-31.4v31.4h-11.1V1289h10.4l24.7,32.3V1289z M4372.2,1298.8
		v40.5h-11.1v-40.5h-14.3v-9.7h39.6v9.7H4372.2z M4430.8,1289v10h-24.9v10.4h22.4v9.5h-22.4v10.4h25.8v10h-37.1V1289H4430.8z
		 M4476.7,1289h11.3v50.2h-11.3l-24-31.4v31.4h-11.1V1289h10.4l24.7,32.3V1289z M4535.9,1339.3l-4.5-10.9h-21l-4.8,10.9h-12
		l21.7-50.2h10.9l21.7,50.2H4535.9z M4520.8,1304l-6.3,14.5h12.7L4520.8,1304z M4588.9,1289h11.3v50.2h-11.3l-24-31.4v31.4h-11.1
		V1289h10.4l24.7,32.3V1289z M4635.5,1329.3c5.4,0,10-2.3,13.6-6.6l7.2,7.5c-5.9,6.3-12.4,9.5-20.1,9.5c-7.9,0-14.3-2.3-19.2-7.2
		c-5-5-7.5-11.1-7.5-18.5c0-7.5,2.5-13.6,7.7-18.5c5-5,11.3-7.5,18.5-7.5c8.4,0,15.2,3.2,20.8,9.3l-7,7.9c-3.6-4.3-7.9-6.6-13.1-6.6
		c-4.3,0-7.9,1.4-10.9,4.1c-2.9,2.9-4.5,6.6-4.5,11.3c0,4.5,1.4,8.4,4.3,11.1C4628,1327.9,4631.4,1329.3,4635.5,1329.3
		L4635.5,1329.3z M4701.3,1289v10h-25.1v10.4h22.6v9.5h-22.6v10.4h25.8v10h-36.9V1289H4701.3z"/>
	<path class="st0" d="M640.7,819H341.9v316.4l55,55h243.8v-142.7H652v148.6c0,3.2-2.5,5.7-5.7,5.7H394.6c-1.6,0-2.9-0.5-4.1-1.6
		l-58.4-58.4c-1.1-1.1-1.8-2.5-1.8-4.1V813.1c0-3.2,2.7-5.7,5.9-5.7h310.1c3.2,0,5.7,2.5,5.7,5.7v195.7h-11.3V819z"/>
	<path class="st0" d="M388.7,1182.3v-38.7h-38.7L388.7,1182.3z M400.3,1137.9v58.4c0,1.4-0.5,2.9-1.6,4.1c-2.3,2.3-5.9,2.3-8.1,0
		l-58.4-58.4c-1.1-1.1-1.8-2.5-1.8-4.1c0-3.2,2.7-5.9,5.9-5.9h58.4C397.8,1132.1,400.3,1134.8,400.3,1137.9L400.3,1137.9z"/>
	<path class="st15" d="M491.2,901.8c29.2,0,52.9,23.8,52.9,52.7c0,20.1-13.8,37.3-24.7,52.9h-56.1c-11.1-15.6-24.9-32.6-24.9-52.9
		C438.5,925.6,462.2,901.8,491.2,901.8L491.2,901.8z"/>
	<path class="st0" d="M491.2,896.1c16.3,0,30.8,6.6,41.4,17.2c10.6,10.4,17.2,25.1,17.2,41.2c0,19.9-11.5,36.4-22.4,51.6l-5,7.2
		h-62.2l-5.4-7.9c-10.6-14.9-21.9-31.2-21.9-50.9c0-16.1,6.6-30.8,17.2-41.2C460.4,902.7,475.1,896.1,491.2,896.1L491.2,896.1z
		 M524.4,921.5c-8.4-8.6-20.1-13.8-33.3-13.8c-12.9,0-24.7,5.2-33.3,13.8c-8.4,8.4-13.6,20.1-13.6,33c0,16.3,10.2,30.8,19.9,44.3
		l2,2.9h50.2l1.6-2.3c9.7-13.8,20.1-28.7,20.1-45C538.2,941.6,533,929.9,524.4,921.5L524.4,921.5z"/>
	<path class="st0" d="M465.6,1001.8H517c6.6,0,10.6,6.3,12,14.5c0.5,2.3,0.7,5,0.7,7.5s-0.2,5.2-0.7,7.7c-1.4,7.9-5.4,14.3-12,14.3
		h-51.3c-6.6,0-10.6-6.3-12-14.3c-0.5-2.5-0.7-5.2-0.7-7.7s0.2-5.2,0.7-7.5C455,1008.1,459.1,1001.8,465.6,1001.8L465.6,1001.8z
		 M517,1013.3h-51.3c0,0-0.2,2-0.7,4.8c-0.2,1.8-0.5,3.6-0.5,5.7c0,2,0.2,4.1,0.5,5.7c0.5,2.7,0.7,4.8,0.7,4.8H517
		c0,0,0.2-2,0.7-4.8c0.2-1.6,0.5-3.6,0.5-5.7c0-2-0.2-3.8-0.5-5.7C517.2,1015.4,517,1013.3,517,1013.3L517,1013.3z"/>
	<path class="st0" d="M476.9,1046.3l1.8,8.1c1.8,7.5,2.7,11.3,3.6,12.9c0.2,0,1.8,0,5.4,0h3.4h3.6c3.6,0,5.2,0,5.4,0
		c0.9-1.6,1.8-5.4,3.4-12.9l2-8.1H476.9z M467.7,1057c-0.9-3.8-2-8.8-3.6-14.9l-1.6-7.2h57.7l-1.8,7.2c-1.4,6.1-2.5,11.1-3.4,14.9
		c-2,8.8-3.2,13.3-5.2,16.7c-3.6,5.2-7.2,5.2-14.9,5.2h-7c-7.7,0-11.3,0-14.9-5.2C470.6,1070.3,469.7,1065.8,467.7,1057L467.7,1057z
		"/>
	<path class="st0" d="M485.5,852.5c0-3.2,2.5-5.7,5.7-5.7c3.2,0,5.9,2.5,5.9,5.7v24.7c0,3.2-2.7,5.9-5.9,5.9c-3.2,0-5.7-2.7-5.7-5.9
		V852.5z"/>
	<path class="st0" d="M536.7,863.1c1.6-2.7,5-3.6,7.7-2c2.7,1.6,3.8,5,2.3,7.9l-12.4,21.3c-1.6,2.7-5,3.6-7.7,2
		c-2.7-1.6-3.8-5-2.3-7.7L536.7,863.1z"/>
	<path class="st0" d="M575.6,898c2.7-1.6,6.1-0.7,7.7,2c1.6,2.7,0.7,6.3-2,7.9L560,920.1c-2.7,1.6-6.3,0.7-7.9-2
		c-1.6-2.7-0.7-6.3,2-7.9L575.6,898z"/>
	<path class="st0" d="M591.9,947.5c3.2,0,5.7,2.5,5.7,5.7c0,3.2-2.5,5.7-5.7,5.7h-24.7c-3.2,0-5.7-2.5-5.7-5.7
		c0-3.2,2.5-5.7,5.7-5.7H591.9z"/>
	<path class="st0" d="M436,869c-1.6-2.9-0.7-6.3,2-7.9c2.9-1.6,6.3-0.7,7.9,2l12.2,21.5c1.6,2.7,0.7,6.1-2,7.7
		c-2.7,1.6-6.1,0.7-7.7-2L436,869z"/>
	<path class="st0" d="M401.4,907.9c-2.7-1.6-3.8-5.2-2.3-7.9c1.6-2.7,5.2-3.6,7.9-2l21.3,12.2c2.7,1.6,3.8,5.2,2.3,7.9
		c-1.6,2.7-5.2,3.6-7.9,2L401.4,907.9z"/>
	<path class="st0" d="M390.8,958.8c-3.2,0-5.9-2.5-5.9-5.7c0-3.2,2.7-5.7,5.9-5.7h24.7c3.2,0,5.7,2.5,5.7,5.7c0,3.2-2.5,5.7-5.7,5.7
		H390.8z"/>
	<path class="st0" d="M1303.2,819h-298.8v316.4l55,55h243.8V819z M998.8,807.5h310.1c3.2,0,5.9,2.5,5.9,5.7v383.2
		c0,3.2-2.7,5.7-5.9,5.7h-251.8c-1.6,0-2.9-0.5-4.1-1.6l-58.4-58.4c-1.1-1.1-1.6-2.5-1.6-4.1V813.1
		C993.1,810,995.6,807.5,998.8,807.5L998.8,807.5z"/>
	<path class="st0" d="M1051.5,1182.3v-38.7h-38.9L1051.5,1182.3z M1062.8,1137.9v58.4c0,1.4-0.5,2.9-1.6,4.1c-2.3,2.3-5.9,2.3-8.1,0
		l-58.4-58.4c-1.1-1.1-1.6-2.5-1.6-4.1c0-3.2,2.5-5.9,5.7-5.9h58.4C1060.3,1132.1,1062.8,1134.8,1062.8,1137.9L1062.8,1137.9z"/>
	<path class="st0" d="M1228.8,871.5h-47.3v47h47.3V871.5z M1175.9,860h58.6c3.2,0,5.9,2.7,5.9,5.9v58.6c0,3.2-2.7,5.7-5.9,5.7h-58.6
		c-3.2,0-5.9-2.5-5.9-5.7v-58.6C1170,862.7,1172.7,860,1175.9,860L1175.9,860z"/>
	<path class="st0" d="M1228.8,978.7h-47.3v47h47.3V978.7z M1175.9,967.2h58.6c3.2,0,5.9,2.5,5.9,5.7v58.6c0,3.2-2.7,5.9-5.9,5.9
		h-58.6c-3.2,0-5.9-2.7-5.9-5.9v-58.6C1170,969.7,1172.7,967.2,1175.9,967.2L1175.9,967.2z"/>
	<path class="st0" d="M1228.8,1085.7h-47.3v47h47.3V1085.7z M1175.9,1074.2h58.6c3.2,0,5.9,2.7,5.9,5.9v58.6c0,3.2-2.7,5.7-5.9,5.7
		h-58.6c-3.2,0-5.9-2.5-5.9-5.7V1080C1170,1076.9,1172.7,1074.2,1175.9,1074.2L1175.9,1074.2z"/>
	<path class="st0" d="M1139.5,906.8c3.2,0,5.9,2.7,5.9,5.9s-2.7,5.7-5.9,5.7h-97c-3.2,0-5.9-2.5-5.9-5.7s2.7-5.9,5.9-5.9H1139.5z
		 M1139.5,871.7c3.2,0,5.9,2.7,5.9,5.9s-2.7,5.7-5.9,5.7h-97c-3.2,0-5.9-2.5-5.9-5.7s2.7-5.9,5.9-5.9H1139.5z"/>
	<path class="st0" d="M1139.5,1014c3.2,0,5.9,2.5,5.9,5.7s-2.7,5.9-5.9,5.9h-83c-3.2,0-5.9-2.7-5.9-5.9s2.7-5.7,5.9-5.7H1139.5z
		 M1139.5,978.9c3.2,0,5.9,2.5,5.9,5.7s-2.7,5.9-5.9,5.9h-95.7c-3.2,0-5.9-2.7-5.9-5.9s2.7-5.7,5.9-5.7H1139.5z"/>
	<path class="st0" d="M1139.5,1121c3.2,0,5.9,2.7,5.9,5.9c0,3.2-2.7,5.7-5.9,5.7H1094c-3.2,0-5.9-2.5-5.9-5.7c0-3.2,2.7-5.9,5.9-5.9
		H1139.5z M1139.5,1085.9c3.2,0,5.9,2.7,5.9,5.9c0,3.2-2.7,5.7-5.9,5.7h-96.6c-3.2,0-5.9-2.5-5.9-5.7c0-3.2,2.7-5.9,5.9-5.9H1139.5z
		"/>
	<polygon class="st15" points="1331.5,953.8 1363.2,985.7 1244.2,1104.7 1197.4,1120.5 1212.5,1072.8 	"/>
	<path class="st0" d="M1335.6,950l31.7,31.7c2.3,2.3,2.3,5.9,0,8.1l-119,119c-0.7,0.7-1.6,1.1-2.5,1.4l-46.6,15.8
		c-2.9,0.9-6.3-0.7-7.2-3.6c-0.5-1.4-0.5-2.5,0-3.6l15.2-47.5c0.2-0.9,0.7-1.8,1.4-2.3l119-119
		C1329.7,947.7,1333.3,947.7,1335.6,950L1335.6,950z M1355,985.7l-23.5-23.8l-114,114l-11.3,35.5l34.8-11.8L1355,985.7z"/>
	<path class="st0" d="M1638.4,1087.7c-9.3,0-17.9-4.1-24-10.9l-0.2-0.5c-5.9-6.6-9.5-15.4-9.5-25.1V855.2c0-10,3.8-19,9.7-25.6
		c6.1-6.8,14.7-11.1,24-11.1h327.3c9.3,0,17.9,4.3,24,11.1c5.9,6.6,9.7,15.6,9.7,25.6v196.1c0,10-3.8,19-9.7,25.6
		c-6.1,6.8-14.7,10.9-24,10.9H1638.4z M1623.1,1069.2c4.1,4.3,9.5,7.2,15.4,7.2h327.3c5.9,0,11.3-2.7,15.4-7.2
		c4.1-4.5,6.8-10.9,6.8-17.9V855.2c0-7-2.7-13.3-6.8-17.9c-4.1-4.5-9.5-7.2-15.4-7.2h-327.3c-5.9,0-11.3,2.7-15.4,7.2
		c-4.1,4.5-6.8,10.9-6.8,17.9v196.1c0,6.8,2.5,13.1,6.6,17.6L1623.1,1069.2z"/>
	<path class="st15" d="M1637.1,850.7c124,0,206.3,0,330,0v204.9h-330V850.7z M1701.5,888.2h82.8c3.2,0,5.7,2.7,5.7,5.9v34.2
		c0,3.2-2.5,5.7-5.7,5.7h-82.8c-3.2,0-5.7-2.5-5.7-5.7v-34.2C1695.9,890.9,1698.4,888.2,1701.5,888.2L1701.5,888.2z M1801.1,919.7
		c-3.2,0-5.9-2.5-5.9-5.7s2.7-5.7,5.9-5.7h68.1c3.2,0,5.9,2.5,5.9,5.7v14l47.5,22.8c2.9,1.4,4.1,4.8,2.7,7.7c-0.7,1.1-1.6,2-2.7,2.7
		l-47.5,22.8v14c0,3.2-2.7,5.7-5.9,5.7h-68.1c-3.2,0-5.9-2.5-5.9-5.7s2.7-5.7,5.9-5.7h62.4v-8.4l-47.7-22.8
		c-2.7-1.4-4.1-4.8-2.7-7.7c0.7-1.1,1.6-2,2.7-2.7l47.7-22.8v-8.4H1801.1z M1906.9,956.1l-37.8-18.1l-37.5,18.1l37.5,18.1
		L1906.9,956.1z M1701.5,975.1h82.8c3.2,0,5.7,2.5,5.7,5.7v34.2c0,3.2-2.5,5.9-5.7,5.9h-82.8c-3.2,0-5.7-2.7-5.7-5.9v-34.2
		C1695.9,977.6,1698.4,975.1,1701.5,975.1L1701.5,975.1z M1778.4,986.6h-71v22.6h71V986.6z M1778.4,899.8h-71v22.6h71V899.8z"/>
	<path class="st0" d="M1733.7,1139.1h136.8c7.2,0,13.6,2.9,18.3,7.5l0,0c4.8,4.8,7.7,11.3,7.7,18.3v20.1c0,3.2-2.7,5.9-5.9,5.9
		h-177.1c-3.2,0-5.9-2.7-5.9-5.9v-20.1c0-7,2.9-13.6,7.7-18.3l0,0C1720.1,1142,1726.4,1139.1,1733.7,1139.1L1733.7,1139.1z
		 M1870.5,1150.4h-136.8c-4.1,0-7.7,1.8-10.2,4.3c-2.7,2.7-4.3,6.3-4.3,10.2v14.5H1885v-14.5c0-3.8-1.6-7.5-4.3-10.2
		C1878.2,1152.2,1874.6,1150.4,1870.5,1150.4L1870.5,1150.4z"/>
	<path class="st0" d="M1785.9,1087.7l-18.5,51.3h69.4l-18.5-51.3H1785.9z M1753.8,1142.7l22.6-62.2c0.7-2.5,2.9-4.1,5.4-4.1h40.5
		c2.3,0,4.5,1.4,5.2,3.6l22.6,62.4c0.5,0.7,0.7,1.4,0.7,2.3c0,3.2-2.7,5.7-5.9,5.7h-85.7c-0.7,0-1.4,0-2-0.2
		C1754.2,1149,1752.7,1145.9,1753.8,1142.7L1753.8,1142.7z"/>
	<path class="st0" d="M2294.4,1087.7c-9.3,0-17.9-4.1-24-10.9l-0.2-0.5c-5.9-6.6-9.5-15.4-9.5-25.1V855.2c0-10,3.8-19,9.7-25.6
		c6.1-6.8,14.7-11.1,24-11.1h327.1c9.5,0,17.9,4.3,24,11.1c6.1,6.6,9.7,15.6,9.7,25.6v196.1c0,10-3.6,19-9.7,25.6
		c-6.1,6.8-14.5,10.9-24,10.9H2294.4z M2279,1069.2c3.8,4.3,9.5,7.2,15.4,7.2h327.1c6.1,0,11.5-2.7,15.6-7.2
		c4.1-4.5,6.8-10.9,6.8-17.9V855.2c0-7-2.7-13.3-6.8-17.9c-4.1-4.5-9.5-7.2-15.6-7.2h-327.1c-5.9,0-11.5,2.7-15.4,7.2
		c-4.3,4.5-6.8,10.9-6.8,17.9v196.1c0,6.8,2.5,13.1,6.6,17.6L2279,1069.2z"/>
	<path class="st15" d="M2293,850.7c123.7,0,206.1,0,330,0v204.9h-330V850.7z M2350.9,891.2h214.2c4.5,0,8.6,2,11.5,5
		c3.2,2.9,5,7,5,11.5v91.2c0,4.5-1.8,8.6-5,11.5c-2.9,2.9-7,4.8-11.5,4.8h-214.2c-4.5,0-8.6-1.8-11.8-4.8l0,0
		c-2.9-2.9-4.8-7-4.8-11.5v-91.2c0-4.5,1.8-8.6,4.8-11.5l0.5-0.5C2342.6,893,2346.6,891.2,2350.9,891.2L2350.9,891.2z M2565.1,902.7
		h-214.2c-1.4,0-2.5,0.5-3.4,1.4l-0.2,0.2c-0.9,0.9-1.4,2-1.4,3.4v91.2c0,1.4,0.5,2.5,1.4,3.4l0,0c0.9,0.9,2.3,1.6,3.6,1.6h214.2
		c1.4,0,2.5-0.7,3.4-1.6c0.9-0.9,1.6-2,1.6-3.4v-91.2c0-1.4-0.7-2.5-1.6-3.4C2567.6,903.4,2566.5,902.7,2565.1,902.7L2565.1,902.7z
		 M2426.3,977.4c2.5,2,2.9,5.7,0.9,8.1c-2,2.5-5.7,2.7-8.1,0.7l-34.6-28.5c-2.3-2-2.7-5.7-0.7-8.1c0.2-0.2,0.5-0.5,0.9-0.7
		l34.4-28.5c2.5-2,6.1-1.8,8.1,0.7c2,2.5,1.6,6.1-0.9,8.1l-29.2,24L2426.3,977.4z M2497.1,986.2c-2.5,2-6.1,1.8-8.1-0.7
		c-2-2.5-1.6-6.1,0.7-8.1l29.2-24.2l-29.2-24c-2.3-2-2.7-5.7-0.7-8.1c2-2.5,5.7-2.7,8.1-0.7l34.4,28.5c0.2,0.2,0.7,0.5,0.9,0.7
		c2,2.5,1.6,6.1-0.9,8.1L2497.1,986.2z M2469.5,921.9c1.6-2.7,5.2-3.8,7.9-2.3s3.6,5.2,2,7.9l-33,57c-1.6,2.7-5,3.8-7.7,2
		c-2.7-1.6-3.6-5-2-7.7L2469.5,921.9z"/>
	<path class="st0" d="M2389.4,1139.1h137.1c7.2,0,13.6,2.9,18.3,7.5l0,0c4.8,4.8,7.7,11.3,7.7,18.3v20.1c0,3.2-2.7,5.9-5.9,5.9
		h-177.3c-3.2,0-5.7-2.7-5.7-5.9v-20.1c0-7,2.9-13.6,7.7-18.3l0,0C2375.8,1142,2382.4,1139.1,2389.4,1139.1L2389.4,1139.1z
		 M2526.5,1150.4h-137.1c-3.8,0-7.5,1.8-10.2,4.3c-2.5,2.7-4.1,6.3-4.1,10.2v14.5h165.8v-14.5c0-3.8-1.6-7.5-4.3-10.2
		C2534.2,1152.2,2530.5,1150.4,2526.5,1150.4L2526.5,1150.4z"/>
	<path class="st0" d="M2441.9,1087.7l-18.5,51.3h69.4l-18.5-51.3H2441.9z M2409.7,1142.7l22.6-62.2c0.7-2.5,2.9-4.1,5.4-4.1h40.3
		c2.5,0,4.8,1.4,5.4,3.6l22.6,62.4c0.5,0.7,0.5,1.4,0.5,2.3c0,3.2-2.5,5.7-5.7,5.7h-85.7c-0.7,0-1.4,0-2-0.2
		C2410.2,1149,2408.6,1145.9,2409.7,1142.7L2409.7,1142.7z"/>
	<path class="st0" d="M626.9,1022.4c3.2,0,5.7,2.7,5.7,5.9c0,3.2-2.5,5.7-5.7,5.7h-30.5c-5.7,0-10.9,2.3-14.5,6.1
		c-3.6,3.6-6.1,8.8-6.1,14.5v61.1c0,8.8-3.6,16.7-9.3,22.6c-5.9,5.7-13.8,9.3-22.6,9.3h-30.5c-3.2,0-5.9-2.5-5.9-5.7
		c0-3.2,2.7-5.7,5.9-5.7h30.5c5.7,0,10.6-2.5,14.5-6.1c3.6-3.6,6.1-8.8,6.1-14.5v-61.1c0-8.8,3.4-17,9.3-22.6
		c5.9-5.9,13.8-9.5,22.6-9.5H626.9z"/>
	<path class="st0" d="M479,1156.9h27.4v-27.4H479V1156.9z M512.2,1168.5h-38.9c-3.2,0-5.9-2.7-5.9-5.9v-38.9c0-3.2,2.7-5.7,5.9-5.7
		h38.9c3.2,0,5.7,2.5,5.7,5.7v38.9C517.9,1165.8,515.4,1168.5,512.2,1168.5L512.2,1168.5z"/>
	<path class="st0" d="M632.6,1041.8h27.4v-27.4h-27.4V1041.8z M665.8,1053.4h-38.9c-3.2,0-5.7-2.5-5.7-5.7v-38.9
		c0-3.2,2.5-5.9,5.7-5.9h38.9c3.2,0,5.7,2.7,5.7,5.9v38.9C671.5,1050.9,669,1053.4,665.8,1053.4L665.8,1053.4z"/>
	<path class="st15" d="M3000.1,881.7c-36.6,0-66.5,29.6-66.5,66.3c0,25.1,29,43.9,31,66.5h70.6c0-22.2,31.2-41.2,31.2-66.5
		C3066.4,911.3,3036.8,881.7,3000.1,881.7L3000.1,881.7z"/>
	<path class="st0" d="M3000.1,887.3c-16.7,0-31.9,6.8-43,17.9c-10.9,10.9-17.6,26-17.6,42.8c0,11.5,7.5,22.4,14.9,32.8
		c6.3,9,12.7,18.1,14.9,28h60.6c2-10.2,8.6-19.2,15.4-28.7c7.5-10.2,15.2-20.8,15.2-32.1c0-16.7-6.8-31.9-17.6-42.8
		C3031.8,894.1,3016.8,887.3,3000.1,887.3L3000.1,887.3z M2949,897.1c13.1-13.1,31.2-21,51.1-21c19.9,0,37.8,7.9,50.9,21
		c13.1,13.1,21,31,21,50.9c0,14.9-8.8,27.1-17.4,38.9c-6.8,9.5-13.3,18.5-13.6,27.1v0.5c0,3.2-2.7,5.9-5.9,5.9h-70.6
		c-2.9,0-5.4-2.3-5.9-5.2c-0.7-9.3-7.2-18.3-13.8-27.8c-8.4-12-17-24.2-17-39.4C2928,928,2936.1,910.2,2949,897.1L2949,897.1z"/>
	<path class="st0" d="M2967.3,1068.1c-3.2,0-5.7-2.7-5.7-5.9c0-3.2,2.5-5.7,5.7-5.7h65.4c3.2,0,5.7,2.5,5.7,5.7
		c0,3.2-2.5,5.9-5.7,5.9H2967.3z"/>
	<path class="st0" d="M2987.4,1092.7c-3.2,0-5.9-2.5-5.9-5.9c0-3.2,2.7-5.7,5.9-5.7h25.1c3.2,0,5.9,2.5,5.9,5.7
		c0,3.4-2.7,5.9-5.9,5.9H2987.4z"/>
	<path class="st0" d="M2994.2,821.1c0-3.2,2.7-5.7,5.9-5.7s5.7,2.5,5.7,5.7v31.7c0,3.2-2.5,5.7-5.7,5.7s-5.9-2.5-5.9-5.7V821.1z"/>
	<path class="st0" d="M3085.6,854.3c2.3-2.3,5.9-2.3,8.1,0s2.3,5.9,0,8.1l-22.4,22.2c-2.3,2.3-5.9,2.3-8.1,0c-2-2.3-2-5.9,0-8.1
		L3085.6,854.3z"/>
	<path class="st0" d="M3126.8,942.3c3.2,0,5.9,2.5,5.9,5.7s-2.7,5.9-5.9,5.9h-31.4c-3.2,0-5.9-2.7-5.9-5.9s2.7-5.7,5.9-5.7H3126.8z"
		/>
	<path class="st0" d="M2906.2,862.4c-2.3-2.3-2.3-5.9,0-8.1c2.3-2.3,5.9-2.3,8.1,0l22.4,22.2c2.3,2.3,2.3,5.9,0,8.1
		c-2.3,2.3-5.9,2.3-8.1,0L2906.2,862.4z"/>
	<path class="st0" d="M2873.2,953.8c-3.2,0-5.9-2.7-5.9-5.9s2.7-5.7,5.9-5.7h31.4c3.2,0,5.9,2.5,5.9,5.7s-2.7,5.9-5.9,5.9H2873.2z"
		/>
	<path class="st0" d="M2967.3,1046.3c-3.2,0-5.7-2.5-5.7-5.7c0-3.2,2.5-5.9,5.7-5.9H3087c3.2,0,5.9,2.7,5.9,5.9
		c0,3.2-2.7,5.7-5.9,5.7H2967.3z"/>
	<path class="st0" d="M2994.2,1086.8c0-3.2,2.7-5.7,5.9-5.7s5.7,2.5,5.7,5.7v38.9h81.2c3.2,0,5.9,2.7,5.9,5.9c0,3.2-2.7,5.7-5.9,5.7
		h-86.9c-3.2,0-5.9-2.5-5.9-5.7V1086.8z"/>
	<path class="st0" d="M3105.3,993.2h135.9c5.7,0,10.9,2.3,14.7,6.1l0,0c3.6,3.6,5.9,8.8,5.9,14.5v136.2c0,5.7-2.3,10.9-5.9,14.5
		c-3.8,3.8-9,6.1-14.7,6.1h-135.9c-5.9,0-10.9-2.3-14.7-6.1l-0.2-0.2c-3.6-3.8-5.9-8.8-5.9-14.3v-136.2c0-5.7,2.3-10.9,6.1-14.5
		l0.5-0.5C3094.7,995.2,3099.6,993.2,3105.3,993.2L3105.3,993.2z M3241.2,1004.7h-135.9c-2.5,0-4.8,0.9-6.3,2.3l-0.2,0.2
		c-1.6,1.8-2.7,4.1-2.7,6.6v136.2c0,2.3,0.9,4.5,2.5,6.1l0.2,0.2c1.6,1.8,3.8,2.7,6.6,2.7h135.9c2.5,0,4.8-0.9,6.6-2.7
		c1.6-1.6,2.7-3.8,2.7-6.3v-136.2c0-2.5-1.1-4.8-2.7-6.6C3246,1005.6,3243.7,1004.7,3241.2,1004.7L3241.2,1004.7z"/>
	<path class="st0" d="M3131.1,1088c-1.8-2.7-1.4-6.1,1.1-8.1c2.7-1.8,6.3-1.4,8.1,1.1l17.4,23.3l48.6-57.9c2-2.3,5.7-2.7,7.9-0.7
		c2.5,2,2.9,5.7,0.9,8.1l-53.2,63.3c-0.5,0.2-0.7,0.7-1.1,0.9c-2.5,2-6.1,1.6-8.1-1.1L3131.1,1088z"/>
	<polygon class="st15" points="3892.4,915.6 3843.1,965.1 3810.8,932.8 3860.1,883.5 3845.4,868.6 3879.8,865.2 3913.9,861.8 
		3910.8,896.1 3907.4,930.5 	"/>
	<path class="st0" d="M3892.4,923.7l-45.2,45.5c-2.3,2.3-5.9,2.3-8.1,0l-32.3-32.3c-2.3-2.3-2.3-5.9,0-8.1l45.2-45.2l-10.6-10.9
		c-2.3-2.3-2.3-5.9,0-8.1c1.1-1.1,2.5-1.6,3.8-1.8l68.3-6.6c3.2-0.2,5.9,2,6.3,5.2c0,0.5,0,0.7,0,1.1L3913,931
		c-0.2,3.2-3.2,5.7-6.3,5.2c-1.4,0-2.5-0.7-3.4-1.6L3892.4,923.7z M3843.1,957l45.2-45.5c2.3-2,5.9-2,8.1,0l6.3,6.3l4.8-49.5
		l-49.5,4.8l6.1,6.3c2.3,2,2.3,5.9,0,7.9l-45.2,45.5L3843.1,957z"/>
	<polygon class="st15" points="3860.1,1130.5 3810.8,1081.2 3843.1,1048.8 3892.4,1098.1 3907.4,1083.2 3910.8,1117.6 3913.9,1152 
		3879.8,1148.6 3845.4,1145.4 	"/>
	<path class="st0" d="M3851.9,1130.5l-45.2-45.2c-2.3-2.3-2.3-5.9,0-8.1l32.3-32.3c2.3-2.3,5.9-2.3,8.1,0l45.2,45.2l10.9-10.9
		c2.3-2.3,5.9-2.3,8.1,0c1.1,1.1,1.6,2.7,1.6,4.1l6.8,68.3c0.2,3.2-2,5.9-5.2,6.1c-0.5,0-0.9,0-1.1,0l-68.8-6.6
		c-3.2-0.5-5.4-3.2-5.2-6.3c0.2-1.4,0.9-2.5,1.8-3.4L3851.9,1130.5z M3818.9,1081.2l45.2,45.2c2.3,2.3,2.3,5.9,0,8.1l-6.1,6.3
		l49.5,4.8l-4.8-49.8l-6.3,6.3c-2.3,2.3-5.9,2.3-8.1,0l-45.2-45.2L3818.9,1081.2z"/>
	<polygon class="st15" points="3645.4,1098.1 3694.7,1048.8 3727.1,1081.2 3677.8,1130.5 3692.5,1145.4 3658.3,1148.6 3623.9,1152 
		3627.1,1117.6 3630.5,1083.2 	"/>
	<path class="st0" d="M3645.4,1090l45.2-45.2c2.3-2.3,5.9-2.3,8.1,0l32.3,32.3c2.3,2.3,2.3,5.9,0,8.1l-45.2,45.2l10.6,10.9
		c2.3,2.3,2.3,5.9,0,8.1c-0.9,0.9-2.5,1.6-3.8,1.6l-68.3,6.6c-3.2,0.5-5.9-2-6.3-5.2c0-0.2,0-0.7,0-1.1l6.8-68.5
		c0.2-3.2,3.2-5.4,6.3-5.2c1.4,0.2,2.5,0.7,3.4,1.6L3645.4,1090z M3694.7,1057l-45.2,45.2c-2.3,2.3-5.9,2.3-8.1,0l-6.3-6.3
		l-4.8,49.8l49.5-4.8l-6.1-6.3c-2.3-2.3-2.3-5.9,0-8.1l45.2-45.2L3694.7,1057z"/>
	<polygon class="st15" points="3677.8,883.5 3727.1,932.8 3694.7,965.1 3645.4,915.6 3630.5,930.5 3627.1,896.1 3623.9,861.8 
		3658.3,865.2 3692.5,868.6 	"/>
	<path class="st0" d="M3685.9,883.5l45.2,45.2c2.3,2.3,2.3,5.9,0,8.1l-32.3,32.3c-2.3,2.3-5.9,2.3-8.1,0l-45.2-45.5l-10.9,10.9
		c-2.3,2.3-5.9,2.3-8.1,0c-1.1-1.1-1.6-2.5-1.6-3.8l-6.8-68.3c-0.2-3.2,2-6.1,5.2-6.3c0.5,0,0.9,0,1.1,0l68.8,6.8
		c3.2,0.2,5.4,2.9,5.2,6.1c-0.2,1.4-0.9,2.7-1.8,3.6L3685.9,883.5z M3718.9,932.8l-45.2-45.5c-2.3-2-2.3-5.9,0-7.9l6.1-6.3
		l-49.5-4.8l4.8,49.5l6.3-6.3c2.3-2,5.9-2,8.1,0l45.2,45.5L3718.9,932.8z"/>
	<path class="st0" d="M3807.6,968.3c10.6,10.6,16.1,24.7,16.1,38.7c0,14-5.4,27.8-16.1,38.7c-10.6,10.6-24.7,15.8-38.7,15.8
		c-14,0-28-5.2-38.7-15.8c-10.6-10.9-16.1-24.7-16.1-38.7c0-14,5.4-28,16.1-38.7c10.6-10.6,24.7-16.1,38.7-16.1
		C3783,952.2,3797,957.7,3807.6,968.3L3807.6,968.3z M3812.1,1007c0-11.1-4.3-22.2-12.7-30.5c-8.4-8.6-19.5-12.7-30.5-12.7
		c-11.1,0-22.2,4.1-30.5,12.7c-8.4,8.4-12.7,19.5-12.7,30.5s4.3,21.9,12.7,30.5c8.4,8.4,19.5,12.7,30.5,12.7
		c11.1,0,22.2-4.3,30.5-12.7C3807.8,1028.9,3812.1,1018.1,3812.1,1007L3812.1,1007z"/>
	<path class="st15" d="M4429,1133.7h-84.8c-10.6,15.6-28.5,26-49.1,26c-32.6,0-59-26.5-59-59.3c0-32.6,26.5-59,59-59
		c20.6,0,38.5,10.2,49.1,25.8h82.6c89.8,0,59.9-36.2,109.9-36.2c29.2,0,65.8,18.1,76,43.9h-69.2c-8.4,0-15.4,6.8-15.4,15.4v20.4
		c0,8.6,7,15.6,15.4,15.6h69.2c-10.2,25.6-46.8,43.7-76,43.7C4485.7,1169.8,4516.9,1133.7,4429,1133.7L4429,1133.7z M4325.6,1100.4
		l-8.1,14.3l-8.1,14h-16.5h-16.3l-8.1-14l-8.1-14.3l8.1-14l8.1-14.3h16.3h16.5l8.1,14.3L4325.6,1100.4z"/>
	<path class="st0" d="M4429,1139.3h-81.9c-5.7,7.7-13.1,14-21.5,18.5c-9,4.8-19.5,7.5-30.5,7.5c-17.9,0-33.9-7.2-45.7-19
		c-11.8-11.8-19-28-19-45.9s7.2-34.2,19-45.9c11.8-11.8,27.8-19,45.7-19c11.1,0,21.5,2.7,30.5,7.5c8.4,4.5,15.8,10.9,21.5,18.5h79.6
		c49.1,0,60.4-11.1,69.9-20.4c8.8-8.6,16.3-15.8,40-15.8c16.1,0,34.4,5.2,49.8,14c14.3,8.1,26.2,19.7,31.7,33.3
		c1.1,2.9-0.2,6.3-3.2,7.5c-0.7,0.2-1.4,0.5-2.3,0.5h-69.2c-2.5,0-5,1.1-6.8,2.9c-1.8,1.8-2.9,4.1-2.9,6.8v20.4c0,2.7,1.1,5.2,2.9,7
		c1.8,1.6,4.3,2.7,6.8,2.7h69.2c3.2,0,5.9,2.7,5.9,5.9c0,0.9-0.2,1.8-0.7,2.5c-5.4,13.3-17.2,24.9-31.4,33
		c-15.4,8.8-33.7,14-49.8,14c-24.4,0-31.9-7.7-40.3-16.3C4487.3,1150.2,4476.7,1139.3,4429,1139.3L4429,1139.3z M4344.1,1128h84.8
		c52.5,0,64.9,12.4,75.5,23.5c6.8,6.8,12.4,12.7,32.1,12.7c14.3,0,30.3-4.8,44.1-12.4c9.3-5.4,17.2-12.2,22.4-19.9h-59.7
		c-5.7,0-11.1-2.3-14.9-6.1c-3.8-3.8-6.1-9.3-6.1-15.2v-20.4c0-5.9,2.3-11.1,6.1-14.9c3.8-3.8,9.3-6.3,14.9-6.3h59.7
		c-5.2-7.7-13.1-14.5-22.4-19.9c-13.8-7.7-29.9-12.2-44.1-12.2c-19.2,0-25.1,5.7-31.9,12.4c-11.3,10.9-24.4,23.8-78,23.8h-82.6l0,0
		c-1.8,0-3.6-0.9-4.8-2.5c-5-7.2-11.5-13.3-19.2-17.4c-7.5-3.8-16.1-6.1-25.1-6.1c-14.7,0-28,5.9-37.5,15.6
		c-9.7,9.7-15.8,23.1-15.8,37.8s6.1,28,15.8,37.8c9.5,9.7,22.8,15.6,37.5,15.6c9,0,17.6-2.3,25.1-6.1c7.7-4.1,14-9.7,19-16.7
		C4340.1,1129.1,4341.9,1128,4344.1,1128L4344.1,1128z M4330.6,1103.3l-16.3,28.3c-1.1,1.8-3.2,2.9-5,2.9l0,0h-32.8
		c-2.3,0-4.3-1.4-5.2-3.4l-16.1-27.8c-1.1-2-0.9-4.3,0.2-6.1l16.1-28c1.1-1.8,2.9-2.7,5-2.7l0,0h32.8c2.3,0,4.3,1.4,5.2,3.2
		l16.1,27.8C4331.7,1099.5,4331.5,1101.5,4330.6,1103.3L4330.6,1103.3z M4312.5,1111.7l6.6-11.3l-13.1-22.6h-26l-13.1,22.6
		l13.1,22.6h26L4312.5,1111.7z"/>
	<path class="st0" d="M4436.6,916.3h93l16.7-6.1c0.9-0.2,1.6-0.5,2.5-0.5l59,5c2.9,0.2,5.2,2.7,5.2,5.7v32.1c0,3.2-2.5,5.7-5.4,5.7
		l-58.8,6.3c-0.9,0-1.8-0.2-2.5-0.5l-16.7-6.1h-93v9.3c0,3.2-2.5,5.7-5.7,5.7h-175.8c-5.4,0-10.4-2.3-13.8-5.7l0,0
		c-3.6-3.6-5.9-8.6-5.9-14v-32.8c0-5.4,2.3-10.4,5.9-13.8v-0.2c3.4-3.4,8.4-5.7,13.8-5.7H4431c3.2,0,5.7,2.5,5.7,5.7V916.3z
		 M4530.7,927.8H4431c-3.2,0-5.9-2.5-5.9-5.7v-10h-169.9c-2.3,0-4.3,0.9-5.9,2.3c-1.4,1.6-2.3,3.6-2.3,5.9v32.8
		c0,2.3,0.9,4.3,2.3,5.9c1.6,1.4,3.6,2.3,5.9,2.3h169.9v-9c0-3.2,2.7-5.9,5.9-5.9h99.8c0.7,0,1.4,0.2,2,0.5l16.3,6.1l52.5-5.7v-21.7
		l-52.5-4.3l-16.1,6.1C4532.3,927.6,4531.4,927.8,4530.7,927.8L4530.7,927.8z"/>
	<path class="st15" d="M4443.7,906.6v60.4c0,6.1-5,11.1-11.1,11.1h-16.3c-6.1,0-11.1-5-11.1-11.1v-60.4c0-6.1,5-11.1,11.1-11.1h16.3
		C4438.7,895.5,4443.7,900.4,4443.7,906.6L4443.7,906.6z"/>
	<path class="st0" d="M4449.3,906.6v60.4c0,4.8-1.8,8.8-5,12c-2.9,2.9-7.2,5-11.8,5h-16.3c-4.8,0-8.8-2-12-5l0,0
		c-2.9-3.2-5-7.2-5-12v-60.4c0-4.8,2-8.8,5-12l0.5-0.2c2.9-2.9,7-4.8,11.5-4.8h16.3c4.5,0,8.8,2,11.8,5
		C4447.5,897.7,4449.3,901.8,4449.3,906.6L4449.3,906.6z M4437.8,966.9v-60.4c0-1.6-0.7-2.9-1.6-3.8c-0.9-0.9-2.3-1.6-3.6-1.6h-16.3
		c-1.4,0-2.7,0.7-3.6,1.4l-0.2,0.2c-0.9,0.9-1.6,2.3-1.6,3.8v60.4c0,1.6,0.7,2.9,1.6,3.8l0,0c0.9,0.9,2.3,1.6,3.8,1.6h16.3
		c1.4,0,2.7-0.7,3.6-1.6C4437.3,969.9,4437.8,968.5,4437.8,966.9L4437.8,966.9z"/>
</g>
</svg>
